<svg width="436" height="32" viewBox="0 0 436 32" fill="none" xmlns="http://www.w3.org/2000/svg">
<g clip-path="url(#clip0_26_2985)">
<path d="M375.63 15.8872C375.63 16.6531 375.379 17.3626 374.955 17.9294C374.92 17.9727 374.886 18.016 374.855 18.0592C374.241 18.7991 373.315 19.275 372.28 19.2966H372.215C370.471 19.2966 369.034 17.9943 368.827 16.3069C368.809 16.1685 368.801 16.03 368.801 15.8829C368.801 13.9922 370.329 12.4648 372.215 12.4648C373.133 12.4648 373.968 12.824 374.583 13.4124C375.232 14.0397 375.63 14.9137 375.63 15.8829V15.8872Z" fill="#8EDFF9"/>
<path d="M383.776 27.7371L397.249 1.58672C397.894 0.297375 399.465 -0.226152 400.754 0.418521C402.044 1.06319 402.568 2.63377 401.923 3.92312L388.45 30.0735C387.805 31.3628 386.234 31.8863 384.945 31.2417C383.655 30.597 383.131 29.0264 383.776 27.7371Z" fill="#0D3857"/>
<path d="M408.925 21.2738C407.627 21.9618 406.017 21.4469 405.359 20.1316L397.261 3.92822C397.071 3.5518 396.984 3.15375 396.984 2.7557C396.984 1.7995 397.512 0.873599 398.43 0.4193C399.72 -0.225373 401.295 0.293826 401.94 1.5875L410.037 17.7952C410.673 19.0629 410.176 20.6075 408.925 21.2738Z" fill="#0D3857"/>
<path d="M415.364 28.75C415.364 29.373 415.161 29.9484 414.815 30.4071C414.789 30.4417 414.758 30.4763 414.732 30.5152C414.235 31.1166 413.482 31.5017 412.642 31.519H412.59C411.175 31.519 410.006 30.4633 409.842 29.0918C409.829 28.9793 409.82 28.8668 409.82 28.75C409.82 27.214 411.058 25.9766 412.59 25.9766C413.335 25.9766 414.01 26.2664 414.512 26.7467C415.035 27.2529 415.364 27.9668 415.364 28.75Z" fill="#0D3857"/>
<path d="M282.361 2.75588C282.361 1.31259 281.191 0.142578 279.747 0.142578C278.303 0.142578 277.133 1.31259 277.133 2.75588V28.9106C277.133 30.3538 278.303 31.5239 279.747 31.5239C281.191 31.5239 282.361 30.3538 282.361 28.9106V2.75588Z" fill="#0D3857"/>
<path d="M436 2.75588C436 1.31259 434.829 0.142578 433.386 0.142578C431.942 0.142578 430.771 1.31259 430.771 2.75588V28.9106C430.771 30.3538 431.942 31.5239 433.386 31.5239C434.829 31.5239 436 30.3538 436 28.9106V2.75588Z" fill="#0D3857"/>
<path d="M17.9694 0.246094H2.61404C1.17035 0.246094 0 1.41611 0 2.8594C0 4.30269 1.17035 5.4727 2.61404 5.4727H17.9694C19.4131 5.4727 20.5834 4.30269 20.5834 2.8594C20.5834 1.41611 19.4131 0.246094 17.9694 0.246094Z" fill="#0D3857"/>
<path d="M10.2744 13.2695H2.61404C1.17035 13.2695 0 14.4395 0 15.8828C0 17.3261 1.17035 18.4961 2.61404 18.4961H10.2744C11.7181 18.4961 12.8884 17.3261 12.8884 15.8828C12.8884 14.4395 11.7181 13.2695 10.2744 13.2695Z" fill="#0D3857"/>
<path d="M17.9694 26.2988H2.61404C1.17035 26.2988 0 27.4688 0 28.9121C0 30.3554 1.17035 31.5254 2.61404 31.5254H17.9694C19.4131 31.5254 20.5834 30.3554 20.5834 28.9121C20.5834 27.4688 19.4131 26.2988 17.9694 26.2988Z" fill="#0D3857"/>
<path d="M17.8093 18.6562C19.3415 18.6562 20.5835 17.4145 20.5835 15.8828C20.5835 14.3511 19.3415 13.1094 17.8093 13.1094C16.2772 13.1094 15.0352 14.3511 15.0352 15.8828C15.0352 17.4145 16.2772 18.6562 17.8093 18.6562Z" fill="#0D3857"/>
<path d="M139.561 0.246094H124.206C122.762 0.246094 121.592 1.41611 121.592 2.8594C121.592 4.30269 122.762 5.4727 124.206 5.4727H139.561C141.005 5.4727 142.175 4.30269 142.175 2.8594C142.175 1.41611 141.005 0.246094 139.561 0.246094Z" fill="#0D3857"/>
<path d="M139.561 13.2695H124.206C122.762 13.2695 121.592 14.4395 121.592 15.8828C121.592 17.3261 122.762 18.4961 124.206 18.4961H139.561C141.005 18.4961 142.175 17.3261 142.175 15.8828C142.175 14.4395 141.005 13.2695 139.561 13.2695Z" fill="#0D3857"/>
<path d="M139.561 26.2969H124.206C122.762 26.2969 121.592 27.4669 121.592 28.9102C121.592 30.3535 122.762 31.5235 124.206 31.5235H139.561C141.005 31.5235 142.175 30.3535 142.175 28.9102C142.175 27.4669 141.005 26.2969 139.561 26.2969Z" fill="#0D3857"/>
<path d="M352.467 0.246094H337.112C335.668 0.246094 334.498 1.41611 334.498 2.8594C334.498 4.30269 335.668 5.4727 337.112 5.4727H352.467C353.911 5.4727 355.081 4.30269 355.081 2.8594C355.081 1.41611 353.911 0.246094 352.467 0.246094Z" fill="#0D3857"/>
<path d="M352.467 13.2695H337.112C335.668 13.2695 334.498 14.4395 334.498 15.8828C334.498 17.3261 335.668 18.4961 337.112 18.4961H352.467C353.911 18.4961 355.081 17.3261 355.081 15.8828C355.081 14.4395 353.911 13.2695 352.467 13.2695Z" fill="#0D3857"/>
<path d="M352.467 26.2969H337.112C335.668 26.2969 334.498 27.4669 334.498 28.9102C334.498 30.3535 335.668 31.5235 337.112 31.5235H352.467C353.911 31.5235 355.081 30.3535 355.081 28.9102C355.081 27.4669 353.911 26.2969 352.467 26.2969Z" fill="#0D3857"/>
<path d="M103.363 0.246094H83.1472C81.7035 0.246094 80.5332 1.41611 80.5332 2.8594C80.5332 4.30269 81.7035 5.4727 83.1472 5.4727H103.363C104.807 5.4727 105.977 4.30269 105.977 2.8594C105.977 1.41611 104.807 0.246094 103.363 0.246094Z" fill="#0D3857"/>
<path d="M95.8707 3.20901C95.8707 1.76572 94.7003 0.595703 93.2566 0.595703C91.8129 0.595703 90.6426 1.76572 90.6426 3.20901V28.8921C90.6426 30.3354 91.8129 31.5054 93.2566 31.5054C94.7003 31.5054 95.8707 30.3354 95.8707 28.8921V3.20901Z" fill="#0D3857"/>
<path d="M66.441 2.75588C66.441 1.31259 65.2706 0.142578 63.8269 0.142578C62.3832 0.142578 61.2129 1.31259 61.2129 2.75588V28.8933C61.2129 30.3365 62.3832 31.5066 63.8269 31.5066C65.2706 31.5066 66.441 30.3365 66.441 28.8933V2.75588Z" fill="#0D3857"/>
<path d="M43.0054 2.75588C43.0054 1.31259 41.8351 0.142578 40.3914 0.142578C38.9477 0.142578 37.7773 1.31259 37.7773 2.75588V28.8933C37.7773 30.3365 38.9477 31.5066 40.3914 31.5066C41.8351 31.5066 43.0054 30.3365 43.0054 28.8933V2.75588Z" fill="#0D3857"/>
<path d="M61.9789 30.7278L38.5434 4.69865C37.522 3.66457 37.522 1.98583 38.5434 0.947429C39.5648 -0.0866432 41.218 -0.0866432 42.2394 0.947429L65.6749 26.9766C66.6963 28.0107 66.6963 29.6895 65.6749 30.7278C64.6535 31.7619 63.0003 31.7619 61.9789 30.7278Z" fill="#0D3857"/>
<path d="M171.427 17.9387L178.702 27.3102C179.59 28.4481 179.378 30.0923 178.239 30.9749C177.763 31.347 177.201 31.5244 176.638 31.5244C175.859 31.5244 175.084 31.1739 174.569 30.5119L163.879 16.7878C163.776 16.6363 163.689 16.4719 163.624 16.2989C163.499 16.0003 163.434 15.6715 163.434 15.3254C163.434 14.6028 163.724 13.9495 164.2 13.4735C164.676 12.9976 165.325 12.7077 166.052 12.7077H173.756C175.725 12.6731 177.313 11.0679 177.313 9.09063C177.313 7.11335 175.725 5.50383 173.756 5.46922H161.837C160.391 5.46922 159.223 4.29669 159.223 2.85591C159.223 2.13336 159.513 1.48003 159.989 1.0041C160.46 0.528168 161.114 0.238281 161.841 0.238281C161.841 0.238281 173.769 0.238281 173.812 0.238281C178.646 0.294528 182.546 4.23179 182.546 9.08198C182.546 13.9322 178.646 17.8651 173.812 17.9257C173.773 17.9257 171.432 17.9257 171.432 17.9257L171.427 17.9387Z" fill="#0D3857"/>
<path d="M249.002 17.9387L256.277 27.3102C257.164 28.4481 256.952 30.0923 255.814 30.9749C255.338 31.347 254.775 31.5244 254.212 31.5244C253.433 31.5244 252.659 31.1739 252.144 30.5119L241.454 16.7878C241.35 16.6363 241.263 16.4719 241.198 16.2989C241.073 16.0003 241.008 15.6715 241.008 15.3254C241.008 14.6028 241.298 13.9495 241.774 13.4735C242.25 12.9976 242.899 12.7077 243.626 12.7077H251.33C253.299 12.6731 254.887 11.0679 254.887 9.09063C254.887 7.11335 253.299 5.50383 251.33 5.46922H239.411C237.965 5.46922 236.797 4.29669 236.797 2.85591C236.797 2.13336 237.087 1.48003 237.563 1.0041C238.035 0.528168 238.688 0.238281 239.415 0.238281C239.415 0.238281 251.343 0.238281 251.386 0.238281C256.22 0.294528 260.12 4.23179 260.12 9.08198C260.12 13.9322 256.22 17.8651 251.386 17.9257C251.347 17.9257 249.006 17.9257 249.006 17.9257L249.002 17.9387Z" fill="#0D3857"/>
<path d="M223.774 9.09538C223.774 13.9412 219.878 17.8785 215.044 17.9391C215.005 17.9391 214.966 17.9391 214.927 17.9391H206.086V28.8942C206.086 30.3393 204.917 31.5075 203.471 31.5075C202.749 31.5075 202.1 31.2176 201.623 30.7417C201.152 30.2701 200.857 29.6124 200.857 28.8899V15.6459C200.857 15.5897 200.857 15.5378 200.866 15.4859C200.866 15.4296 200.857 15.3777 200.857 15.3214C200.857 14.5989 201.147 13.9456 201.628 13.4696C202.1 12.998 202.753 12.7038 203.476 12.7038H214.992C216.961 12.6692 218.545 11.064 218.545 9.08673C218.545 7.10944 216.961 5.49992 214.992 5.46531H203.476C202.03 5.46531 200.862 4.29279 200.862 2.85201C200.862 2.12945 201.152 1.47613 201.632 1.00019C202.104 0.528588 202.757 0.234375 203.48 0.234375H214.932C214.971 0.234375 215.01 0.234375 215.049 0.234375C219.883 0.294948 223.778 4.22788 223.778 9.07807L223.774 9.09538Z" fill="#0D3857"/>
<path d="M299.208 12.1843C298.858 11.2584 298.676 10.1638 298.676 8.95661C298.676 7.59371 298.944 6.34764 299.433 5.24866C299.927 4.14104 300.628 3.19782 301.554 2.44066C302.48 1.67051 303.631 1.06478 304.982 0.627787C306.345 0.2081 307.916 -0.00390625 309.63 -0.00390625C312.664 -0.00390625 315.455 0.614807 317.03 1.10372C318.294 1.5061 319.138 2.8041 318.64 4.23622C318.281 5.26597 317.273 5.85007 316.186 5.76786C315.97 5.75056 315.767 5.71162 315.555 5.63374C315.091 5.465 314.641 5.30924 314.222 5.18376C312.676 4.70783 311.274 4.46986 310.067 4.46986C308.158 4.46986 306.656 4.80734 305.6 5.49528C304.475 6.20918 303.9 7.27787 303.9 8.64077C303.9 9.1167 304.034 9.54937 304.151 10.0037C304.393 10.9252 305.375 11.5526 306.483 11.9766C308.145 12.6083 308.738 14.6505 307.596 16.0134L307.561 16.0523C306.89 16.8528 305.787 17.1773 304.8 16.8441C304.363 16.697 303.947 16.5369 303.558 16.3639C302.432 15.8879 301.506 15.2822 300.792 14.5813C300.078 13.9063 299.541 13.0799 299.204 12.18L299.208 12.1843Z" fill="#0D3857"/>
<path d="M320.554 22.3469C320.554 25.4621 319.598 27.7509 317.646 29.3085C315.681 30.8661 312.392 32.229 308.449 31.9607C305.515 31.766 303.533 31.4415 300.486 30.1089C299.365 29.62 298.582 28.5859 298.859 27.2879C299.105 26.1414 300.235 25.3323 301.404 25.4102C301.668 25.4275 301.919 25.488 302.157 25.6005C302.745 25.8515 303.308 26.0635 303.857 26.2582C305.628 26.8769 307.268 27.1841 308.731 27.1841C310.752 27.1841 312.34 26.8033 313.461 26.0462C314.625 25.2587 315.231 24.0949 315.231 22.6065C315.231 21.3734 314.794 20.3739 313.941 19.6297C313.807 19.5172 313.664 19.4091 313.509 19.3096C312.232 18.4745 312.059 16.653 313.037 15.4805C313.885 14.4637 315.352 14.2257 316.482 14.918C317.153 15.329 317.741 15.792 318.252 16.3025C319.797 17.8471 320.554 19.8244 320.554 22.3382V22.3469Z" fill="#0D3857"/>
</g>
<defs>
<clipPath id="clip0_26_2985">
<rect width="436" height="32" fill="white"/>
</clipPath>
</defs>
</svg>
